<svg width="100" height="100" viewBox="0 0 100 100" fill="none" xmlns="http://www.w3.org/2000/svg">
<g id="&#208;&#191;&#209;&#128;&#208;&#184;&#208;&#184;&#208;&#188;&#209;&#131;&#209;&#137;&#208;&#181;&#209;&#129;&#209;&#130;&#208;&#178;&#208;&#176; 1">
<path id="Vector" d="M57.0417 46.2042C56.8698 46.2042 56.6989 46.2146 56.5292 46.2365C55.7114 45.2323 54.4094 44.6594 53.0573 44.749C52.3969 43.7687 51.3031 43.101 50.0677 42.975V33.8292C50.0677 31.5552 48.2958 29.774 46.0312 29.774C43.801 29.774 42.0531 31.5552 42.0531 33.8292V45.2177C41.1927 44.4917 40.1667 43.9958 39.0135 43.9958C38.0417 43.9958 37.1 44.3427 36.3594 44.9719C33.75 47.1906 35.7031 50.8469 36.9948 53.2667C37.3469 53.925 37.6792 54.5469 37.8469 55.0031C38.2198 56.0167 38.6052 57.0635 39.0187 58.0083C39.9375 60.6219 40.9708 62.2531 41.8104 63.5781C42.8656 65.2406 43.4479 66.1552 43.4479 68.2979C43.4479 69.3948 44.3417 70.2865 45.4385 70.2865H56.1104C57.2104 70.2865 58.1052 69.3948 58.1052 68.2979C58.1052 67.7583 58.6385 66.699 59.1198 65.7458C60.0073 63.974 61.1125 61.7677 61.1125 59.1521L61.1187 50.1635C61.1187 47.9802 59.2896 46.2042 57.0417 46.2042ZM58.2187 59.1521C58.2187 61.0833 57.3615 62.7948 56.5271 64.4615C56.0146 65.476 55.525 66.4479 55.3167 67.3927H46.3094C46.1333 64.9865 45.2542 63.6021 44.2469 62.0156C43.4896 60.8198 42.5458 59.3312 41.7312 57L41.6896 56.8937C41.3042 56.0177 40.9271 54.9937 40.55 53.9708C40.326 53.3604 39.9479 52.6531 39.5479 51.9042C38.7448 50.4 37.401 47.8844 38.2333 47.1771C38.451 46.9917 38.7281 46.8896 39.0135 46.8896C40.0917 46.8896 41.4792 48.6281 41.9531 50.124C42.3042 51.2323 43.0479 51.3979 43.4594 51.3979C43.4604 51.3979 43.4604 51.3979 43.4604 51.3979L44.0906 51.3917L44.5177 50.9437C44.9333 50.5094 44.9646 49.976 44.9469 49.6271V33.8292C44.9469 33.1667 45.4125 32.6677 46.0312 32.6677C46.6833 32.6677 47.174 33.1667 47.174 33.8292V46.7219L49.1521 45.9417C49.8479 45.6667 50.675 46.0677 50.8073 46.7177L51.1698 48.4917L52.8208 47.7458C53.4281 47.4708 54.201 47.7562 54.4448 48.3271L54.9635 49.9833L56.5 49.2229C56.6646 49.1406 56.8521 49.0979 57.0417 49.0979C57.6948 49.0979 58.225 49.576 58.225 50.1635L58.2187 59.1521Z" fill="#FF914D"/>
<g id="Clip path group">
<mask id="mask0_303_262" style="mask-type:luminance" maskUnits="userSpaceOnUse" x="40" y="3" width="16" height="16">
<g id="ac9b1ec286">
<path id="Vector_2" d="M40.8 3.73021H55.4667V18.4H40.8V3.73021Z" fill="white"/>
</g>
</mask>
<g mask="url(#mask0_303_262)">
<g id="Group">
<path id="Vector_3" d="M48.0969 18.199C52.0917 18.199 55.3312 14.9594 55.3312 10.9635C55.3312 6.96875 52.0917 3.73021 48.0969 3.73021C44.101 3.73021 40.8625 6.96875 40.8625 10.9635C40.8625 14.9594 44.101 18.199 48.0969 18.199ZM48.0969 6.62396C50.4906 6.62396 52.4375 8.57083 52.4375 10.9635C52.4375 13.3573 50.4906 15.3052 48.0969 15.3052C45.7031 15.3052 43.7562 13.3573 43.7562 10.9635C43.7562 8.57083 45.7031 6.62396 48.0969 6.62396Z" fill="#FF914D"/>
</g>
</g>
</g>
<g id="Clip path group_2">
<mask id="mask1_303_262" style="mask-type:luminance" maskUnits="userSpaceOnUse" x="40" y="81" width="16" height="16">
<g id="b1bdbb9fe0">
<path id="Vector_4" d="M40.8 81.6H55.4667V96.3302H40.8V81.6Z" fill="white"/>
</g>
</mask>
<g mask="url(#mask1_303_262)">
<g id="Group_2">
<path id="Vector_5" d="M48.0969 81.8615C44.101 81.8615 40.8625 85.1 40.8625 89.0959C40.8625 93.0917 44.101 96.3302 48.0969 96.3302C52.0917 96.3302 55.3312 93.0917 55.3312 89.0959C55.3312 85.1 52.0917 81.8615 48.0969 81.8615ZM48.0969 93.4365C45.7031 93.4365 43.7562 91.4886 43.7562 89.0959C43.7562 86.7021 45.7031 84.7552 48.0969 84.7552C50.4906 84.7552 52.4375 86.7021 52.4375 89.0959C52.4375 91.4886 50.4906 93.4365 48.0969 93.4365Z" fill="#FF914D"/>
</g>
</g>
</g>
<g id="Clip path group_3">
<mask id="mask2_303_262" style="mask-type:luminance" maskUnits="userSpaceOnUse" x="79" y="42" width="16" height="16">
<g id="7eca414149">
<path id="Vector_6" d="M79.7333 42.6667H94.3969V57.3333H79.7333V42.6667Z" fill="white"/>
</g>
</mask>
<g mask="url(#mask2_303_262)">
<g id="Group_3">
<path id="Vector_7" d="M87.1625 42.7958C83.1667 42.7958 79.9281 46.0344 79.9281 50.0302C79.9281 54.025 83.1667 57.2646 87.1625 57.2646C91.1573 57.2646 94.3969 54.025 94.3969 50.0302C94.3969 46.0344 91.1573 42.7958 87.1625 42.7958ZM87.1625 54.3708C84.7688 54.3708 82.8219 52.4229 82.8219 50.0302C82.8219 47.6365 84.7688 45.6896 87.1625 45.6896C89.5563 45.6896 91.5031 47.6365 91.5031 50.0302C91.5031 52.4229 89.5563 54.3708 87.1625 54.3708Z" fill="#FF914D"/>
</g>
</g>
</g>
<g id="Clip path group_4">
<mask id="mask3_303_262" style="mask-type:luminance" maskUnits="userSpaceOnUse" x="1" y="42" width="16" height="16">
<g id="27edd936fc">
<path id="Vector_8" d="M1.79688 42.6667H16.2667V57.3333H1.79688V42.6667Z" fill="white"/>
</g>
</mask>
<g mask="url(#mask3_303_262)">
<g id="Group_4">
<path id="Vector_9" d="M16.2656 50.0302C16.2656 46.0344 13.026 42.7958 9.03125 42.7958C5.03542 42.7958 1.79688 46.0344 1.79688 50.0302C1.79688 54.025 5.03542 57.2646 9.03125 57.2646C13.026 57.2646 16.2656 54.025 16.2656 50.0302ZM9.03125 54.3708C6.6375 54.3708 4.69063 52.4229 4.69063 50.0302C4.69063 47.6365 6.6375 45.6896 9.03125 45.6896C11.425 45.6896 13.3719 47.6365 13.3719 50.0302C13.3719 52.4229 11.425 54.3708 9.03125 54.3708Z" fill="#FF914D"/>
</g>
</g>
</g>
<path id="Vector_10" d="M75.5875 29.774C79.5823 29.774 82.8219 26.5344 82.8219 22.5385C82.8219 18.5438 79.5833 15.3042 75.5875 15.3042C71.5917 15.3042 68.3531 18.5438 68.3531 22.5385C68.3531 26.5344 71.5917 29.7729 75.5875 29.774ZM75.5875 18.1979C77.9812 18.1979 79.9281 20.1448 79.9281 22.5385C79.9281 24.9323 77.9812 26.8802 75.5875 26.8802C73.1937 26.8792 71.2469 24.9323 71.2469 22.5385C71.2469 20.1448 73.1937 18.1979 75.5875 18.1979Z" fill="#FF914D"/>
<path id="Vector_11" d="M20.6063 70.2865C16.6104 70.2865 13.3729 73.525 13.3719 77.5208C13.3729 81.5167 16.6115 84.7552 20.6063 84.7552C24.6021 84.7552 27.8406 81.5167 27.8406 77.5208C27.8406 73.525 24.6011 70.2865 20.6063 70.2865ZM20.6063 81.8615C18.2136 81.8615 16.2667 79.9136 16.2656 77.5208C16.2667 75.1271 18.2136 73.1802 20.6063 73.1802C23 73.1802 24.9469 75.1271 24.9469 77.5208C24.9469 79.9136 23 81.8615 20.6063 81.8615Z" fill="#FF914D"/>
<path id="Vector_12" d="M75.5875 70.2865C71.5927 70.2865 68.3542 73.525 68.3531 77.5208C68.3542 81.5156 71.5927 84.7552 75.5875 84.7552C79.5833 84.7552 82.8219 81.5156 82.8219 77.5208C82.8219 73.525 79.5833 70.2865 75.5875 70.2865ZM75.5875 81.8615C73.1948 81.8615 71.2479 79.9136 71.2469 77.5208C71.2479 75.1271 73.1948 73.1802 75.5875 73.1802C77.9812 73.1802 79.9281 75.1271 79.9281 77.5208C79.9281 79.9136 77.9812 81.8615 75.5875 81.8615Z" fill="#FF914D"/>
<path id="Vector_13" d="M20.6063 15.3042C16.6104 15.3052 13.3719 18.5438 13.3719 22.5396C13.3719 26.5344 16.6104 29.7729 20.6063 29.774C24.6021 29.774 27.8406 26.5344 27.8406 22.5396C27.8406 18.5427 24.6011 15.3052 20.6063 15.3042ZM20.6063 26.8802C18.2125 26.8792 16.2656 24.9323 16.2656 22.5396C16.2656 20.1458 18.2125 18.199 20.6063 18.1979C23 18.199 24.9469 20.1458 24.9469 22.5396C24.9469 24.9323 23 26.8802 20.6063 26.8802Z" fill="#FF914D"/>
</g>
</svg>
