<svg width="28" height="28" viewBox="0 0 28 28" fill="none" xmlns="http://www.w3.org/2000/svg">
<g id="&#208;&#191;&#209;&#128;&#208;&#184;&#208;&#184;&#208;&#188;&#209;&#131;&#209;&#137;&#208;&#181;&#209;&#129;&#209;&#130;&#208;&#178;&#208;&#176; (4) 1">
<g id="Clip path group">
<mask id="mask0_303_196" style="mask-type:luminance" maskUnits="userSpaceOnUse" x="0" y="0" width="28" height="27">
<g id="57496f7977">
<path id="Vector" d="M0.925171 0.504303H27.0772V26.6563H0.925171V0.504303Z" fill="white"/>
</g>
</mask>
<g mask="url(#mask0_303_196)">
<g id="Group">
<path id="Vector_2" d="M14.0008 0.504303C13.6922 0.504303 13.3839 0.515386 13.0759 0.537261C12.641 0.567886 12.2079 0.620386 11.7783 0.69447C11.3489 0.768845 10.9231 0.86422 10.5031 0.980886C10.0831 1.09755 9.66893 1.23493 9.26264 1.39301C8.85635 1.5508 8.45822 1.7293 8.06972 1.92705C7.68122 2.1248 7.30264 2.3418 6.93572 2.57718C6.5691 2.81284 6.21414 3.06659 5.8726 3.33755C5.53105 3.60851 5.20351 3.89639 4.89085 4.2003C4.57789 4.50393 4.28068 4.8233 3.9998 5.15668C3.71893 5.49005 3.45497 5.83743 3.2088 6.19705C2.96264 6.55697 2.73455 6.92884 2.52543 7.31122C2.3166 7.69389 2.12672 8.08676 1.95697 8.48839C1.78722 8.88972 1.63789 9.29951 1.50897 9.71601C1.38005 10.1325 1.27214 10.5551 1.18551 10.9827C1.09889 11.4097 1.03385 11.8411 0.990096 12.2748C0.946638 12.7088 0.925054 13.1443 0.925054 13.5803C0.924763 13.8889 0.935846 14.1975 0.957721 14.5052C0.988346 14.9401 1.04085 15.3732 1.11493 15.8028C1.1893 16.2324 1.28468 16.6583 1.40135 17.0783C1.51801 17.4983 1.65568 17.9121 1.81347 18.3187C1.97155 18.725 2.14976 19.1231 2.34751 19.5116C2.54526 19.9001 2.76226 20.2784 2.99764 20.6453C3.2333 21.0123 3.48705 21.3669 3.75801 21.7085C4.02897 22.05 4.31685 22.3778 4.62076 22.6905C4.92439 23.0032 5.24376 23.3007 5.57714 23.5816C5.91051 23.8624 6.2576 24.1264 6.61751 24.3726C6.97743 24.6187 7.3493 24.8468 7.73197 25.0556C8.11464 25.2648 8.50722 25.4543 8.90884 25.6241C9.31047 25.7938 9.72026 25.9435 10.1368 26.0724C10.5533 26.201 10.9759 26.3089 11.4032 26.3956C11.8302 26.4822 12.2616 26.5475 12.6956 26.591C13.1293 26.6344 13.5647 26.6563 14.0008 26.6563C14.3093 26.6563 14.6179 26.6455 14.9256 26.6236C15.3605 26.5927 15.7936 26.5402 16.2233 26.4661C16.6529 26.3921 17.0787 26.2964 17.4987 26.18C17.9187 26.0633 18.3326 25.9257 18.7392 25.7676C19.1455 25.6098 19.5436 25.4316 19.9321 25.2338C20.3206 25.0361 20.6992 24.8191 21.0658 24.5834C21.4327 24.3478 21.7877 24.094 22.1292 23.8231C22.4705 23.5521 22.7983 23.2642 23.111 22.9606C23.4236 22.6567 23.7211 22.3376 24.002 22.0042C24.2829 21.6706 24.5468 21.3235 24.793 20.9636C25.0392 20.6036 25.2673 20.2318 25.4761 19.8494C25.6852 19.4667 25.8748 19.0738 26.0445 18.6722C26.2146 18.2709 26.3639 17.8611 26.4928 17.4446C26.6218 17.0281 26.7294 16.6055 26.816 16.1782C26.9029 15.7509 26.968 15.3195 27.0114 14.8858C27.0549 14.4518 27.0768 14.0163 27.0768 13.5803C27.0768 13.2717 27.066 12.9631 27.0441 12.6554C27.0132 12.2206 26.9607 11.7874 26.8866 11.3578C26.8125 10.9282 26.7168 10.5026 26.6005 10.0826C26.4838 9.66234 26.3461 9.24847 26.188 8.84218C26.0303 8.43589 25.8521 8.03776 25.6543 7.64926C25.4566 7.26076 25.2395 6.88218 25.0039 6.51526C24.7685 6.14834 24.5148 5.79368 24.2438 5.45214C23.9725 5.11059 23.6847 4.78305 23.3811 4.47039C23.0774 4.15743 22.7581 3.86022 22.4247 3.57934C22.0913 3.29847 21.7439 3.03451 21.3843 2.78834C21.0244 2.54218 20.6525 2.31409 20.2698 2.10497C19.8872 1.89614 19.4946 1.70626 19.093 1.53651C18.6913 1.36676 18.2816 1.21714 17.8651 1.08822C17.4486 0.959595 17.0259 0.851678 16.5986 0.765053C16.1713 0.678428 15.74 0.613095 15.3063 0.569636C14.8726 0.526178 14.4368 0.504303 14.0008 0.504303Z" fill="white"/>
<path id="Vector_3" d="M14.0009 0.504303C13.6923 0.504303 13.384 0.515386 13.076 0.537261C12.8141 0.560886 12.5528 0.592678 12.2926 0.632053V10.976H1.18738C1.1868 10.9781 1.18621 10.9804 1.18563 10.9827C1.099 11.41 1.03396 11.8411 0.990504 12.2751C0.946754 12.7088 0.925171 13.1443 0.925171 13.5803C0.925171 13.8889 0.935963 14.1975 0.957838 14.5055C0.988463 14.9403 1.04125 15.3732 1.11534 15.8028C1.1518 15.9833 1.19205 16.163 1.23609 16.3415H12.2926V26.5303C12.4265 26.5525 12.5609 26.5729 12.6957 26.591C13.1294 26.6347 13.5648 26.6563 14.0009 26.6563C14.3095 26.6563 14.618 26.6455 14.9258 26.6236C15.1795 26.6003 15.4324 26.5697 15.6841 26.5315V16.3415H26.7744C26.7887 16.2873 26.8027 16.2327 26.8161 16.1782C26.903 15.7509 26.9681 15.3195 27.0115 14.8858C27.0553 14.4521 27.0769 14.0163 27.0769 13.5803C27.0769 13.2717 27.0661 12.9631 27.0442 12.6554C27.0136 12.2206 26.9608 11.7874 26.8867 11.3578C26.8602 11.2303 26.8316 11.1029 26.8013 10.976H15.6841V0.626803C15.5584 0.606095 15.4327 0.586845 15.3064 0.569636C14.8727 0.526178 14.4369 0.504303 14.0009 0.504303ZM22.468 3.61959L16.8528 9.12714H18.8355L23.5299 4.63955C23.4809 4.58297 23.431 4.52639 23.3812 4.47039C23.0904 4.1723 22.7856 3.88851 22.468 3.61959ZM4.51792 4.60047C4.34 4.78072 4.16734 4.96622 3.99992 5.15668C3.83717 5.35793 3.68055 5.56385 3.53034 5.77443L7.03821 9.12714H9.2543L4.51792 4.60047ZM11.1236 18.1898H9.0545L4.49546 22.5476C4.53688 22.5954 4.57888 22.643 4.62088 22.6902C4.92392 23.0023 5.24242 23.2992 5.57521 23.5795L11.1236 18.1898ZM18.7373 18.1898L23.4016 22.6485C23.609 22.4406 23.809 22.2256 24.0021 22.0039C24.1383 21.8339 24.2705 21.6601 24.3979 21.4833L20.9525 18.1898H18.7373Z" fill="#FF0000"/>
</g>
</g>
</g>
<path id="Vector_4" fill-rule="evenodd" clip-rule="evenodd" d="M16.8467 0.828339V7.97563L21.8978 3.17859C21.7298 3.04442 21.5586 2.91434 21.3844 2.78834C21.0245 2.54217 20.6526 2.31409 20.27 2.10496C19.8873 1.89613 19.4947 1.70626 19.0931 1.53651C18.6915 1.36676 18.2817 1.21713 17.8652 1.08821C17.5292 0.98788 17.1897 0.901255 16.8467 0.828339ZM11.116 0.843505C10.9107 0.884339 10.7062 0.93013 10.5032 0.98088C10.0832 1.09755 9.66907 1.23492 9.26277 1.39301C8.85648 1.5508 8.45836 1.7293 8.06986 1.92705C7.68136 2.1248 7.30277 2.3418 6.93586 2.57717C6.64186 2.77026 6.35544 2.97501 6.07777 3.19084L11.116 7.97563V0.843505ZM24.8016 6.23205L21.7712 9.12334H26.2815C26.2515 9.02913 26.2206 8.93551 26.1882 8.84217C26.0304 8.43588 25.8522 8.03776 25.6544 7.64926C25.4567 7.26076 25.2397 6.88217 25.004 6.51526C24.9378 6.42017 24.8704 6.32567 24.8016 6.23205ZM3.1684 6.26296C2.93798 6.60217 2.72332 6.95188 2.52557 7.31121C2.31673 7.69388 2.12686 8.08676 1.95711 8.48838C1.87457 8.69809 1.79727 8.90955 1.72552 9.12334H6.16644L3.1684 6.26296ZM1.76227 18.1641C1.77919 18.2158 1.7964 18.2671 1.81361 18.3187C1.97169 18.725 2.1499 19.1231 2.34765 19.5116C2.5454 19.9001 2.7624 20.2784 2.99777 20.6453C3.07302 20.7538 3.14973 20.8612 3.22819 20.9673L6.16644 18.1641H1.76227ZM21.7712 18.1641L24.7564 21.012C24.7686 20.9959 24.7809 20.9796 24.7931 20.9636C25.0393 20.6036 25.2674 20.2318 25.4762 19.8494C25.6854 19.4667 25.8749 19.0738 26.0447 18.6722C26.11 18.5042 26.1719 18.3348 26.2302 18.1641H21.7712ZM11.116 19.2421L6.11569 23.9908C6.2799 24.122 6.44732 24.2492 6.61765 24.3726C6.97757 24.6187 7.34944 24.8468 7.73211 25.0556C8.11477 25.2648 8.50736 25.4543 8.90898 25.6241C9.31061 25.7938 9.7204 25.9435 10.1369 26.0724C10.4598 26.1683 10.7864 26.2518 11.116 26.3223V19.2421ZM16.8467 19.2421V26.3261C17.0654 26.283 17.2827 26.2343 17.4989 26.18C17.9189 26.0633 18.3327 25.9257 18.7393 25.7676C19.1456 25.6098 19.5437 25.4316 19.9322 25.2338C20.3207 25.0361 20.6993 24.8191 21.0659 24.5834C21.3404 24.4026 21.6076 24.2113 21.8677 24.0103L16.8467 19.2421Z" fill="#000080"/>
</g>
</svg>
