<svg width="72" height="50" viewBox="0 0 72 50" fill="none" xmlns="http://www.w3.org/2000/svg">
<g id="Payment logo / Visa">
<rect x="1" y="0.5" width="69.8333" height="49" rx="3.5" fill="white"/>
<path id="Icon" fill-rule="evenodd" clip-rule="evenodd" d="M22.8964 33.038H18.6052L15.3874 20.4008C15.2347 19.8195 14.9104 19.3056 14.4334 19.0633C13.2429 18.4546 11.9311 17.9702 10.5 17.7259V17.2394H17.4127C18.3667 17.2394 19.0823 17.9702 19.2015 18.819L20.8711 27.9347L25.1601 17.2394H29.332L22.8964 33.038ZM31.7171 33.038H27.6645L31.0016 17.2394H35.0542L31.7171 33.038ZM40.2973 21.6161C40.4166 20.7652 41.1321 20.2786 41.9669 20.2786C43.2787 20.1565 44.7077 20.4008 45.9002 21.0074L46.6158 17.6059C45.4232 17.1193 44.1114 16.875 42.9209 16.875C38.9876 16.875 36.1254 19.0633 36.1254 22.1005C36.1254 24.411 38.1528 25.6242 39.5839 26.355C41.1321 27.0838 41.7284 27.5703 41.6091 28.2991C41.6091 29.3922 40.4165 29.8787 39.2261 29.8787C37.795 29.8787 36.3639 29.5143 35.0542 28.9056L34.3387 32.3093C35.7697 32.9159 37.318 33.1602 38.7491 33.1602C43.1594 33.2802 45.9002 31.094 45.9002 27.8125C45.9002 23.6802 40.2973 23.4379 40.2973 21.6161ZM60.0833 33.038L56.8655 17.2394H53.4092C52.6936 17.2394 51.9781 17.7259 51.7396 18.4546L45.781 33.038H49.9528L50.7855 30.7296H55.9115L56.3885 33.038H60.0833ZM54.0055 21.4939L55.1959 27.4482H51.8589L54.0055 21.4939Z" fill="#172B85"/>
<rect x="1" y="0.5" width="69.8333" height="49" rx="3.5" stroke="#F2F4F7"/>
</g>
</svg>
