<svg width="34" height="34" viewBox="0 0 34 34" fill="none" xmlns="http://www.w3.org/2000/svg">
<g id="logo / whatsapp">
<path id="Icon" fill-rule="evenodd" clip-rule="evenodd" d="M17 32.9375C25.2152 32.9375 31.875 26.2777 31.875 18.0625C31.875 9.84726 25.2152 3.1875 17 3.1875C8.78476 3.1875 2.125 9.84726 2.125 18.0625C2.125 20.7303 2.82731 23.2341 4.05713 25.399L2.125 32.9375L9.89704 31.1353C12.0077 32.2845 14.4276 32.9375 17 32.9375ZM17 30.649C23.9514 30.649 29.5865 25.0139 29.5865 18.0625C29.5865 11.1111 23.9514 5.47596 17 5.47596C10.0486 5.47596 4.41346 11.1111 4.41346 18.0625C4.41346 20.7464 5.25353 23.2342 6.68508 25.2771L5.55769 29.5048L9.85993 28.4292C11.8887 29.8292 14.3486 30.649 17 30.649Z" fill="#BFC8D0"/>
<path id="Icon_2" d="M29.75 17C29.75 24.0416 24.0416 29.75 17 29.75C14.3142 29.75 11.8223 28.9195 9.7672 27.5014L5.40909 28.5909L6.55112 24.3083C5.10098 22.2388 4.25 19.7188 4.25 17C4.25 9.95837 9.95837 4.25 17 4.25C24.0416 4.25 29.75 9.95837 29.75 17Z" fill="url(#paint0_linear_303_182)"/>
<path id="Icon_3" fill-rule="evenodd" clip-rule="evenodd" d="M17 31.875C25.2152 31.875 31.875 25.2152 31.875 17C31.875 8.78476 25.2152 2.125 17 2.125C8.78476 2.125 2.125 8.78476 2.125 17C2.125 19.6678 2.82731 22.1716 4.05713 24.3365L2.125 31.875L9.89704 30.0728C12.0077 31.222 14.4276 31.875 17 31.875ZM17 29.5865C23.9514 29.5865 29.5865 23.9514 29.5865 17C29.5865 10.0486 23.9514 4.41346 17 4.41346C10.0486 4.41346 4.41346 10.0486 4.41346 17C4.41346 19.6839 5.25353 22.1717 6.68508 24.2146L5.55769 28.4423L9.85993 27.3667C11.8887 28.7667 14.3486 29.5865 17 29.5865Z" fill="white"/>
<path id="Icon_4" d="M13.2813 10.0938C12.9276 9.38339 12.3851 9.44628 11.837 9.44628C10.8574 9.44628 9.33008 10.6196 9.33008 12.8032C9.33008 14.5928 10.1187 16.5518 12.7759 19.4822C15.3404 22.3104 18.71 23.7734 21.5073 23.7236C24.3047 23.6738 24.8802 21.2665 24.8802 20.4536C24.8802 20.0933 24.6566 19.9135 24.5026 19.8646C23.5493 19.4072 21.7912 18.5547 21.3911 18.3946C20.9911 18.2344 20.7822 18.451 20.6524 18.5689C20.2896 18.9146 19.5705 19.9334 19.3242 20.1626C19.078 20.3918 18.7109 20.2758 18.5582 20.1892C17.996 19.9636 16.4719 19.2856 15.2569 18.1079C13.7544 16.6514 13.6662 16.1503 13.3831 15.7042C13.1567 15.3473 13.3229 15.1284 13.4058 15.0327C13.7295 14.6592 14.1765 14.0825 14.377 13.7959C14.5774 13.5093 14.4183 13.0742 14.3228 12.8032C13.9121 11.6377 13.5642 10.662 13.2813 10.0938Z" fill="white"/>
</g>
<defs>
<linearGradient id="paint0_linear_303_182" x1="28.1562" y1="7.4375" x2="4.25" y2="29.75" gradientUnits="userSpaceOnUse">
<stop stop-color="#5BD066"/>
<stop offset="1" stop-color="#27B43E"/>
</linearGradient>
</defs>
</svg>
